<?xml version="1.0" encoding="UTF-8"?><svg xmlns="http://www.w3.org/2000/svg" xmlns:xlink="http://www.w3.org/1999/xlink" version="1.1" x="0px" y="0px" viewBox="0 0 24 24" xml:space="preserve"><path d="M11.5 0C5.159 0 0 5.159 0 11.5S5.159 23 11.5 23 23 17.841 23 11.5 17.841 0 11.5 0zm0 3C13.43 3 15 4.57 15 6.5S13.43 10 11.5 10 8 8.43 8 6.5 9.57 3 11.5 3zm6 15h-12a.5.5 0 0 1-.5-.5c0-3.584 2.916-6.5 6.5-6.5s6.5 2.916 6.5 6.5a.5.5 0 0 1-.5.5z" id="User_2"/><metadata><rdf:RDF xmlns:rdf="http://www.w3.org/1999/02/22-rdf-syntax-ns#" xmlns:rdfs="http://www.w3.org/2000/01/rdf-schema#" xmlns:dc="http://purl.org/dc/elements/1.1/"><rdf:Description about="https://iconscout.com/legal#licenses" dc:title="user,profile,basic,s,solid,c" dc:description="user,profile,basic,s,solid,c" dc:publisher="Iconscout" dc:date="2018-01-06" dc:format="image/svg+xml" dc:language="en"><dc:creator><rdf:Bag><rdf:li>Icon 54</rdf:li></rdf:Bag></dc:creator></rdf:Description></rdf:RDF></metadata></svg>